REM MD5 2211f0213ede077c5863e97c24c7163c
FILE "Universal Nuts (Japan).bin" BINARY
  TRACK 01 MODE2/2352
    INDEX 01 00:00:00
  TRACK 02 AUDIO
    INDEX 00 24:13:74
    INDEX 01 24:15:74
  TRACK 03 AUDIO
    INDEX 00 25:26:32
    INDEX 01 25:28:32
  TRACK 04 AUDIO
    INDEX 00 28:28:32
    INDEX 01 28:30:32
  TRACK 05 AUDIO
    INDEX 00 30:39:22
    INDEX 01 30:41:22
REM LEADOUT 33:41:22
